PathFileType	4	(X/Y/Z)	F:\MotionCapture\20160217\3\Generated_files\2_Test03-Dynamic.trc
DataRate	CameraRate	NumFrames	NumMarkers	Units	OrigDataRate	OrigDataStartFrame	OrigNumFrames
120.00	120.00	       9	39	mm	120.00	316	       841
Frame#	Time	Top.Head			Front.Head			Rear.Head			R.Shoulder			R.Offset			R.Elbow			R.Wrist			L.Shoulder			L.Elbow			L.Wrist			R.ASIS			L.ASIS			V.Sacral			R.Thigh			R.Knee			R.Shank			R.Ankle			R.Heel			R.Toe			L.Thigh			L.Knee			L.Shank			L.Ankle			L.Heel			L.Toe			R1			R2			R3			R4			R5			R6			R7			L1			L2			L3			L4			L5			L6			L7			V_Mid_ASIS			V_Pelvis_Origin			V_R.Hip_JC			V_L.Hip_JC			V_R.Knee_JC			V_L.Knee_JC			V_R.Ankle_JC			V_L.Ankle_JC			V_Mid_Hip			V_Mid_Shoulder			V_R.Hand			V_L.Hand			V_R.Toe_Offset_Static			V_L.Toe_Offset_Static			V_R.Toe_Offset			V_L.Toe_Offset			
		X1	Y1	Z1	X2	Y2	Z2	X3	Y3	Z3	X4	Y4	Z4	X5	Y5	Z5	X6	Y6	Z6	X7	Y7	Z7	X8	Y8	Z8	X9	Y9	Z9	X10	Y10	Z10	X11	Y11	Z11	X12	Y12	Z12	X13	Y13	Z13	X14	Y14	Z14	X15	Y15	Z15	X16	Y16	Z16	X17	Y17	Z17	X18	Y18	Z18	X19	Y19	Z19	X20	Y20	Z20	X21	Y21	Z21	X22	Y22	Z22	X23	Y23	Z23	X24	Y24	Z24	X25	Y25	Z25	X26	Y26	Z26	X27	Y27	Z27	X28	Y28	Z28	X29	Y29	Z29	X30	Y30	Z30	X31	Y31	Z31	X32	Y32	Z32	X33	Y33	Z33	X34	Y34	Z34	X35	Y35	Z35	X36	Y36	Z36	X37	Y37	Z37	X38	Y38	Z38	X39	Y39	Z39	

316	2.625	1228.82520	172.60817	1672.03809	1137.44336	166.04936	1566.78308	1349.70508	168.46129	1627.41138	1328.28088	359.41620	1380.34827	1490.82068	101.75854	1248.38013	1340.28967	480.90469	1062.34045	1138.37451	456.84973	898.22711	1332.71716	-49.70382	1377.47522	1454.74146	-162.38463	1092.89722	1449.62622	-227.86078	843.79425	1316.75342	313.80392	901.89825	1281.76794	29.05135	918.50739	1523.35840	134.81398	914.00958	1378.30029	284.84589	519.04138	1510.88586	325.39218	443.54727	1638.52075	245.80132	247.15544	1796.36841	304.79608	147.71568	1849.25989	234.84369	171.71552	1701.91895	281.55765	42.73036	1157.11511	80.28558	653.84766	1170.12598	23.91865	472.69135	1139.64575	104.44505	336.23630	1157.64917	40.82331	63.37172	1224.44336	97.13670	44.96865	1021.74683	52.76436	45.96952	1659.33923	264.89990	39.85086	1691.45801	244.07552	46.87010	1747.61267	216.90875	111.12196	1810.40125	208.80579	149.41982	1831.65076	279.13138	148.84560	1785.39954	308.37030	85.29893	1739.86987	319.07196	44.01591	977.42450	79.81499	45.64770	1010.82520	89.94718	48.62265	1105.62524	131.98547	54.65495	1190.12854	130.68292	46.44380	1196.64917	58.36446	42.93502	1123.24438	32.63227	36.46354	1060.93042	21.79055	42.18895																																																	1784.56238	202.82925	128.07127	
317	2.633	1217.26062	170.90907	1674.51965	1125.97424	164.33374	1569.71069	1337.93408	166.50925	1629.91699	1316.26453	358.02609	1383.02246	1478.99170	100.54233	1250.29541	1331.29724	478.50891	1064.91541	1131.51123	455.77319	898.37152	1321.16980	-51.17547	1380.27893	1440.70337	-162.38560	1093.68274	1434.27222	-227.57211	844.64740	1303.26917	311.34161	904.29486	1269.62756	26.79801	921.64191	1510.50598	133.28008	916.27362	1359.84729	286.71002	519.80145	1492.28943	327.70047	444.07520	1623.45056	248.74825	249.74332	1786.58252	304.75800	158.70343	1834.43494	235.10857	183.89595	1700.47449	281.87897	42.78649	1145.00159	77.56517	653.77966	1161.70667	22.92282	472.44357	1133.27136	103.41226	335.29715	1157.30652	40.72523	62.99205	1224.14929	96.75488	45.00716	1020.62683	52.86456	45.38130	1659.92114	265.16495	40.35727	1688.94495	244.00960	47.51549	1737.16528	218.36243	116.51004	1796.82312	210.81372	158.27089	1821.51440	280.58911	160.62651	1779.07568	308.41458	92.30642	1738.10840	318.78070	46.14561	976.48639	80.19940	43.82358	1010.11774	90.71115	47.48316	1105.17236	132.32341	54.17494	1190.00659	130.57576	46.46173	1196.60852	57.15329	42.36453	1122.88367	32.71684	36.33924	1060.66895	21.82232	41.95820	
318	2.642	1205.94678	169.36540	1677.28662	1114.73840	162.64471	1572.05969	1326.34973	165.06755	1632.28320	1304.25928	356.11508	1386.24927	1466.76794	99.69489	1252.58191	1322.02393	476.56448	1067.78564	1125.18274	454.84900	897.83026	1309.91028	-52.74224	1382.97388	1426.38074	-163.47530	1094.93115	1418.46729	-227.29547	845.83026	1290.19678	309.07318	906.97406	1257.07068	25.07456	924.51691	1497.83130	131.81779	918.78711	1339.78894	288.96744	520.99628	1472.83533	329.40906	444.58093	1607.47070	251.16100	252.95436	1772.48938	304.78076	165.64955	1819.31433	235.49800	196.14619	1698.21997	281.59564	43.90823	1134.97632	73.83963	652.88702	1154.26672	21.14997	472.17230	1127.86243	102.26659	334.77289	1156.43042	40.29343	63.36058	1224.17700	96.48978	45.20731	1019.73730	52.90537	44.84164	1658.61108	265.16327	40.47158	1685.17212	244.65225	49.62788	1726.13452	220.35469	122.73489	1782.81128	211.02402	168.59273	1808.92395	281.29794	171.85918	1771.51929	309.35748	100.08078	1735.05872	318.15991	49.88433	975.60071	80.29233	41.87845	1009.56610	90.94221	46.67833	1104.90845	132.29958	53.77700	1189.84265	130.48991	46.39503	1196.44189	57.12909	42.36374	1122.72192	32.82368	36.26311	1060.44897	21.74024	41.74114	
319	2.650	1194.63049	167.66606	1679.97766	1103.07898	161.62186	1575.06702	1314.90051	163.47736	1634.92432	1292.09546	354.50232	1388.93994	1454.51990	98.38191	1254.76355	1313.19409	474.40118	1071.04614	1118.18262	453.71585	897.45569	1298.47522	-53.87391	1385.84448	1411.85828	-163.76775	1096.31750	1402.00415	-226.74075	847.15717	1277.69128	306.52148	909.62323	1245.53662	22.73022	926.86060	1485.39880	130.29202	921.39960	1320.55725	291.76175	522.19586	1452.29431	330.39294	445.31558	1590.54102	253.95625	255.50134	1759.02258	305.70145	175.03128	1803.22241	236.39136	209.15453	1693.31628	281.72971	46.92819	1124.90808	70.66281	651.51184	1147.95349	19.74294	471.85815	1122.92590	101.29269	334.54221	1156.73999	39.69138	63.65910	1224.03271	96.39195	45.20424	1019.67615	52.43200	44.21937	1654.75110	264.78116	40.22925	1679.06995	245.44536	52.47736	1715.43579	221.57512	130.49693	1768.08618	212.49889	179.13509	1794.71521	281.64044	183.20883	1762.67651	310.32462	109.11938	1729.07495	318.08362	54.48737	975.33899	80.44059	41.97311	1009.38098	91.22012	47.14140	1104.82935	132.10915	53.33740	1189.75916	130.35324	46.37141	1197.59277	56.58065	43.43388	1122.88220	32.60643	36.20148	1060.36108	21.22531	41.50872	
320	2.658	1183.87964	166.22537	1682.84790	1092.27795	160.08415	1578.16187	1303.97156	162.04192	1637.56824	1280.58850	352.89978	1392.03137	1442.41370	97.44076	1257.17688	1304.37646	472.66318	1074.36694	1112.86438	453.02847	897.02032	1286.52014	-55.04922	1389.01294	1397.44836	-164.63914	1097.68274	1385.37036	-226.28221	848.51422	1265.30957	304.19293	912.35089	1233.11389	20.61580	929.65851	1473.47034	128.77278	924.02087	1300.77930	294.07852	523.31488	1430.18091	331.01880	444.84540	1572.77380	254.84206	258.61230	1743.87646	305.47287	184.31085	1786.64917	237.77916	222.45723	1687.70276	282.33749	50.96911	1115.58167	68.01993	650.05792	1142.74768	17.62922	471.49222	1118.89722	100.18636	334.24786	1156.61328	39.47288	63.49239	1225.01587	95.33813	46.06469	1019.70087	52.07488	43.77216	1650.82532	264.38788	37.95959	1672.54651	246.02396	55.63585	1703.19751	222.11302	137.88353	1754.09619	213.28436	190.47534	1778.70569	282.13174	195.21565	1750.96777	310.51816	120.72472	1722.85596	319.04404	61.80512	974.87585	80.30141	41.17308	1009.08307	90.81367	46.80764	1104.99951	131.58044	53.27674	1189.72327	130.24771	46.37563	1198.50952	55.65078	43.83029	1122.92090	32.30415	36.11120	1060.52441	20.40403	41.34006																																																	1292.38635	36.03553	-121.29013	
321	2.667	1173.19922	165.04846	1685.89001	1081.53955	158.87697	1581.27087	1292.96460	160.61836	1639.88330	1268.92395	350.94113	1395.10010	1429.89270	95.68378	1259.42749	1295.87390	470.50677	1077.46118	1107.08789	452.24887	896.47919	1274.23975	-55.85075	1391.99170	1383.22437	-165.07327	1099.14209	1367.95935	-225.44754	849.35754	1253.21960	302.42645	915.40674	1221.40723	18.92055	931.75012	1461.57471	127.39804	926.60083	1281.12952	295.58115	525.07062	1407.54175	331.62704	444.09436	1554.88464	254.55585	262.49246	1727.62915	306.04901	194.61980	1766.90344	237.47917	234.67845	1682.71448	282.66013	55.17817	1107.31824	65.91727	649.19684	1137.66748	16.35646	471.06119	1115.42114	99.26797	333.99301	1156.99634	39.58878	62.65941	1225.29370	95.19924	45.99862	1019.73413	51.89265	43.47712	1646.29846	266.54980	36.54941	1664.51831	247.24706	59.42697	1689.40417	221.62581	145.12218	1737.38855	212.00105	201.24869	1761.26489	281.25610	207.37717	1737.28748	310.43719	131.72432	1710.50549	318.79730	71.31563	974.87744	80.08896	40.52424	1009.02075	90.55409	46.59948	1105.20496	131.17801	53.29708	1190.01111	129.99115	46.60386	1196.81030	56.61329	42.39234	1123.12451	31.95398	35.92227	1060.44104	20.14181	41.23397	
322	2.675	1162.31262	163.78040	1688.74316	1069.61865	157.48732	1584.67542	1282.27808	159.27502	1642.39746	1257.98340	349.54999	1398.49597	1417.95569	94.40696	1261.98865	1286.99719	468.89474	1080.55005	1101.63232	451.29636	895.89398	1262.66797	-57.11554	1395.08569	1368.45715	-165.94560	1100.65039	1351.18933	-224.83104	850.98169	1241.47168	300.99078	918.07062	1210.06604	17.10858	933.83630	1449.75525	125.95445	928.96161	1261.38037	295.97083	527.44940	1384.73132	332.13663	444.05670	1534.31372	255.26918	266.32928	1709.41870	305.99850	205.26328	1746.05090	235.45520	246.31616	1673.17566	283.51706	60.11448	1098.98242	63.45115	648.36578	1133.58813	15.00616	470.70975	1112.62537	97.91527	333.83847	1157.87732	39.06218	62.82529	1225.27612	95.30257	45.73715	1019.78149	51.71801	43.33604	1639.44775	269.22482	35.42877	1654.89233	248.75314	63.40976	1673.92200	221.59010	151.73793	1718.11780	211.18542	210.40337	1743.21765	280.16022	218.96799	1723.70276	310.17059	143.04919	1701.61633	319.29767	80.81050	974.92059	79.43143	39.05523	1009.12939	90.25497	46.55679	1105.06763	130.89850	53.46776	1190.27051	129.73169	46.69725	1198.27014	56.01257	43.48898	1123.47607	30.91549	34.94353	1061.62231	18.56005	40.72202	
323	2.683	1151.18713	162.40729	1691.64661	1058.53149	156.14833	1587.90637	1271.56262	158.20764	1645.20691	1246.98083	348.57617	1401.57471	1405.82434	92.53986	1264.69568	1278.57532	466.86017	1083.68030	1096.30762	450.56027	895.64252	1250.06543	-58.24660	1398.10498	1353.69702	-166.54208	1102.34009	1332.86267	-223.62027	852.07037	1229.22058	299.57526	920.59351	1198.42798	15.40009	935.94183	1438.28845	124.82124	931.56262	1241.37354	295.91327	530.73218	1361.43750	332.88947	444.20889	1514.38086	254.26289	269.99585	1689.86938	304.31403	213.48668	1723.40674	233.69539	256.53683	1661.57507	285.26447	65.04032	1092.58655	62.25357	647.71454	1129.65857	13.47950	470.62561	1109.84326	97.00134	333.42780	1157.79211	39.03880	62.44312	1225.36597	95.23956	45.70314	1019.68829	51.31917	43.18162	1630.44971	274.12506	37.43131	1642.58569	250.33070	67.41438	1656.38184	220.79103	157.55219	1697.44385	208.73300	219.37144	1723.26721	277.80408	229.18185	1707.98816	308.90527	153.53613	1691.82434	319.62274	90.02084	974.91309	79.07111	38.73652	1009.22693	89.81268	46.41018	1105.00427	130.76608	53.69928	1190.28149	129.58359	46.93604	1196.69006	56.54077	42.09554	1123.45642	31.45227	35.30547	1061.66333	18.41599	40.66552	
324	2.692	1141.03467	161.35966	1694.67810	1047.79297	155.06236	1591.11316	1260.53833	157.07240	1647.87292	1235.90942	347.46338	1404.34241	1393.73364	90.95857	1267.28345	1270.16602	465.52499	1086.46863	1090.90222	449.54178	894.69482	1237.37085	-59.14533	1400.92676	1339.27136	-167.20924	1103.80383	1314.47034	-222.71918	853.36133	1218.02563	298.19186	923.25659	1186.50464	14.27776	937.99664	1427.10400	123.86234	934.11469	1221.54260	296.35428	534.01080	1337.93762	333.79080	444.92374	1493.39270	253.19463	274.28806	1669.77686	302.20001	220.72899	1699.54663	230.45189	264.33972	1634.51050	294.33618	74.87853	1086.10693	61.65673	647.36987	1126.36243	12.03944	470.35416	1106.93860	95.52685	332.93845	1158.12939	39.30090	62.27516	1225.31628	95.22829	45.62891	1019.74585	51.04679	42.98661	1617.93396	281.38123	43.64933	1626.15796	254.88982	72.31563	1637.35645	219.91010	162.84674	1676.10583	206.42516	226.25024	1702.12573	274.36435	237.61702	1690.35669	306.93726	162.79861	1677.27246	319.31937	98.09954	974.88733	78.80122	38.58722	1009.31177	89.60228	46.40167	1104.85059	130.35762	54.07762	1190.53003	129.25545	47.27724	1196.90344	56.37033	42.02583	1123.52930	31.14454	35.05503	1061.61841	18.19898	40.58965	
